<svg xmlns="http://www.w3.org/2000/svg" width="72" height="72" viewBox="0 0 72 72" fill="none">
  <path d="M19 41c-5.523 0-10-4.477-10-10 0-4.974 3.631-9.1 8.39-9.873C20.223 14.583 26.547 10 34 10c8.36 0 15.3 5.764 17.106 13.529A10.002 10.002 0 0 1 63 33c0 5.523-4.477 10-10 10H19Z" fill="#F48120"/>
  <path d="M23 46c0-8.284 5.82-15 13-15s13 6.716 13 15v10H23V46Z" fill="#161616"/>
  <path d="M29 56v-8c0-4.418 3.134-8 7-8s7 3.582 7 8v8" stroke="#0F62FE" stroke-width="3" stroke-linecap="round"/>
  <path d="M33 46h6" stroke="#0F62FE" stroke-width="3" stroke-linecap="round"/>
</svg>
