<svg xmlns="http://www.w3.org/2000/svg" width="72" height="72" viewBox="0 0 72 72" fill="none">
  <path d="M19 43c-5.523 0-10-4.477-10-10 0-4.974 3.631-9.1 8.39-9.873C20.223 16.583 26.547 12 34 12c8.36 0 15.3 5.764 17.106 13.529A10.002 10.002 0 0 1 63 35c0 5.523-4.477 10-10 10H19Z" fill="#F48120"/>
  <path d="M25 31.5a3.5 3.5 0 1 0 0 7 3.5 3.5 0 0 0 0-7Zm11 0a3.5 3.5 0 1 0 0 7 3.5 3.5 0 0 0 0-7Zm11 0a3.5 3.5 0 1 0 0 7 3.5 3.5 0 0 0 0-7Z" fill="#0F62FE"/>
  <path d="M28.5 35h4M39.5 35h4" stroke="#0F62FE" stroke-width="2.5" stroke-linecap="round"/>
  <path d="M36 43v10" stroke="#0F62FE" stroke-width="2.5" stroke-linecap="round"/>
  <path d="M28 53h16" stroke="#0F62FE" stroke-width="2.5" stroke-linecap="round"/>
</svg>
